<svg width="68" height="68" viewBox="0 0 68 68" fill="none" xmlns="http://www.w3.org/2000/svg">
<g filter="url(#filter0_d_2684_388)">
<circle cx="34" cy="30" r="30" fill="#F83758"/>
</g>
<path d="M34.0066 16.6666C37.5799 16.6666 40.5176 19.4745 40.6667 23.0324H40.6318C40.636 23.1358 40.6161 23.2388 40.5738 23.3333H40.7819C42.4046 23.3333 44.1038 24.458 44.7851 27.173L44.8592 27.4934L45.8843 35.7529C46.6221 41.021 43.7399 43.2363 39.8083 43.3302L39.5446 43.3333H28.4914C24.4957 43.3333 21.4167 41.8773 22.0937 36.1114L22.1399 35.7529L23.1769 27.4934C23.6882 24.5695 25.4048 23.4163 27.0588 23.3376L27.2423 23.3333H27.3465C27.3289 23.2338 27.3289 23.1319 27.3465 23.0324C27.4956 19.4745 30.4333 16.6666 34.0066 16.6666ZM30.1293 27.7723C29.4785 27.7723 28.9509 28.3154 28.9509 28.9852C28.9509 29.655 29.4785 30.1981 30.1293 30.1981C30.7801 30.1981 31.3077 29.655 31.3077 28.9852L31.2985 28.8331C31.2258 28.235 30.7301 27.7723 30.1293 27.7723ZM37.8478 27.7723C37.197 27.7723 36.6694 28.3154 36.6694 28.9852C36.6694 29.655 37.197 30.1981 37.8478 30.1981C38.4986 30.1981 39.0261 29.655 39.0261 28.9852C39.0261 28.3154 38.4986 27.7723 37.8478 27.7723ZM33.9543 18.4031C31.3889 18.4031 29.3091 20.4757 29.3091 23.0324C29.3267 23.1319 29.3267 23.2338 29.3091 23.3333H38.6576C38.6205 23.2372 38.6008 23.1353 38.5995 23.0324C38.5995 20.4757 36.5198 18.4031 33.9543 18.4031Z" fill="white"/>
<defs>
<filter id="filter0_d_2684_388" x="0" y="0" width="68" height="68" filterUnits="userSpaceOnUse" color-interpolation-filters="sRGB">
<feFlood flood-opacity="0" result="BackgroundImageFix"/>
<feColorMatrix in="SourceAlpha" type="matrix" values="0 0 0 0 0 0 0 0 0 0 0 0 0 0 0 0 0 0 127 0" result="hardAlpha"/>
<feOffset dy="4"/>
<feGaussianBlur stdDeviation="2"/>
<feComposite in2="hardAlpha" operator="out"/>
<feColorMatrix type="matrix" values="0 0 0 0 0 0 0 0 0 0 0 0 0 0 0 0 0 0 0.25 0"/>
<feBlend mode="normal" in2="BackgroundImageFix" result="effect1_dropShadow_2684_388"/>
<feBlend mode="normal" in="SourceGraphic" in2="effect1_dropShadow_2684_388" result="shape"/>
</filter>
</defs>
</svg>
