<svg width="24" height="28" viewBox="0 0 24 28" fill="none" xmlns="http://www.w3.org/2000/svg">
<path d="M12.0066 0.666626C15.5799 0.666626 18.5176 3.47451 18.6667 7.03239H18.6318C18.636 7.13581 18.6161 7.2388 18.5738 7.33329H18.7819C20.4046 7.33329 22.1038 8.45797 22.7851 11.173L22.8592 11.4934L23.8843 19.7529C24.6221 25.021 21.7399 27.2363 17.8083 27.3302L17.5446 27.3333H6.49137C2.4957 27.3333 -0.583274 25.8773 0.0937078 20.1114L0.139873 19.7529L1.17685 11.4934C1.68819 8.56954 3.40481 7.41629 5.05883 7.33765L5.24228 7.33329H5.34652C5.32894 7.23376 5.32894 7.13193 5.34652 7.03239C5.49563 3.47451 8.43333 0.666626 12.0066 0.666626ZM8.12933 11.7723C7.47852 11.7723 6.95094 12.3154 6.95094 12.9852C6.95094 13.655 7.47852 14.1981 8.12933 14.1981C8.78013 14.1981 9.30772 13.655 9.30772 12.9852L9.29853 12.8331C9.22582 12.235 8.73007 11.7723 8.12933 11.7723ZM15.8478 11.7723C15.197 11.7723 14.6694 12.3154 14.6694 12.9852C14.6694 13.655 15.197 14.1981 15.8478 14.1981C16.4986 14.1981 17.0261 13.655 17.0261 12.9852C17.0261 12.3154 16.4986 11.7723 15.8478 11.7723ZM11.9543 2.40314C9.38885 2.40314 7.30912 4.47573 7.30912 7.03239C7.3267 7.13193 7.3267 7.23376 7.30912 7.33329H16.6576C16.6205 7.23722 16.6008 7.13533 16.5995 7.03239C16.5995 4.47573 14.5198 2.40314 11.9543 2.40314Z" fill="white"/>
</svg>
