<svg width="113" height="32" viewBox="0 0 113 32" fill="none" xmlns="http://www.w3.org/2000/svg">
<g clip-path="url(#clip0_2684_325)">
<path d="M39.2809 15.5127C39.2809 11.3985 37.6465 7.45275 34.7373 4.54356C31.8281 1.63437 27.8824 5.39515e-07 23.7682 0C19.654 -5.39514e-07 15.7083 1.63437 12.7991 4.54356C9.88986 7.45275 8.25549 11.3985 8.25549 15.5127H13.1033C14.7097 15.5127 15.9625 14.1665 16.5509 12.6717C16.9372 11.6903 17.5234 10.7884 18.2836 10.0281C19.7382 8.57352 21.7111 7.75634 23.7682 7.75634C25.8253 7.75634 27.7982 8.57352 29.2528 10.0281C30.7074 11.4827 31.5245 13.4556 31.5245 15.5127H39.2809Z" fill="url(#paint0_linear_2684_325)"/>
<path d="M30.3445 21.4501C31.1241 19.568 31.5254 17.5508 31.5254 15.5137H39.2809C39.2809 24.0811 32.3356 31.0263 23.7682 31.0263C22.4265 31.0263 21.1245 30.856 19.8829 30.5358C20.5854 30.3548 21.2759 30.1243 21.9491 29.8455C23.8312 29.0659 25.5413 27.9233 26.9818 26.4828C28.4223 25.0423 29.565 23.3322 30.3445 21.4501Z" fill="#4392F9"/>
<path d="M0.5 15.5117C0.5 17.5489 0.901247 19.5661 1.68083 21.4482C2.46042 23.3303 3.60307 25.0404 5.04356 26.4809C6.48404 27.9213 8.19415 29.064 10.0762 29.8436C11.9583 30.6232 13.9755 31.0244 16.0127 31.0244C18.0498 31.0244 20.067 30.6232 21.9491 29.8436C23.8312 29.064 25.5413 27.9213 26.9818 26.4809C28.4223 25.0404 29.5649 23.3303 30.3445 21.4482C31.1241 19.5661 31.5254 17.5489 31.5254 15.5117H26.6776C25.0712 15.5117 23.8184 16.8579 23.23 18.3526C23.2133 18.3952 23.1961 18.4376 23.1786 18.48C22.7888 19.421 22.2175 20.2761 21.4972 20.9963C20.777 21.7165 19.9219 22.2879 18.9809 22.6777C18.0399 23.0675 17.0313 23.2681 16.0127 23.2681C14.9941 23.2681 13.9855 23.0675 13.0445 22.6777C12.1034 22.2879 11.2484 21.7165 10.5281 20.9963C9.80787 20.2761 9.23655 19.421 8.84676 18.48C8.45696 17.5389 8.25634 16.5303 8.25634 15.5117H0.5Z" fill="url(#paint1_linear_2684_325)"/>
<path d="M0.501587 15.5127C0.501587 6.94524 7.44683 0 16.0142 0C17.3556 0 18.6572 0.170246 19.8987 0.490323C17.2348 1.17657 14.7774 2.56535 12.7991 4.54357C9.88992 7.45273 8.25557 11.3985 8.25557 15.5127H0.501587Z" fill="#F83758"/>
<path d="M54.4708 21.6752C53.9188 21.6752 53.3818 21.6032 52.8598 21.4592C52.3378 21.3152 51.7768 21.0902 51.1768 20.7842L50.5558 21.5132H49.9978L49.6468 16.9502L50.3938 16.8332C50.7778 18.1712 51.2848 19.1402 51.9148 19.7402C52.5508 20.3402 53.3938 20.6402 54.4438 20.6402C55.1938 20.6402 55.7908 20.4602 56.2348 20.1002C56.6848 19.7402 56.9098 19.2452 56.9098 18.6152C56.9098 18.2372 56.7508 17.8862 56.4328 17.5622C56.1208 17.2322 55.5808 16.8812 54.8128 16.5092L53.3638 15.7892C52.1878 15.2072 51.3238 14.5622 50.7718 13.8542C50.2198 13.1462 49.9438 12.3212 49.9438 11.3792C49.9438 10.6532 50.1448 10.0082 50.5468 9.44418C50.9488 8.87418 51.4918 8.42718 52.1758 8.10318C52.8658 7.77918 53.6458 7.61718 54.5158 7.61718C55.7338 7.61718 56.7778 7.98618 57.6478 8.72418L58.0708 7.77918H58.6648L58.8358 11.7212H58.0528C57.7588 10.7072 57.3268 9.94518 56.7568 9.43518C56.1928 8.92518 55.4758 8.67018 54.6058 8.67018C53.9938 8.67018 53.5168 8.82018 53.1748 9.12018C52.8328 9.42018 52.6618 9.83418 52.6618 10.3622C52.6618 10.7702 52.8148 11.1362 53.1208 11.4602C53.4268 11.7782 53.9578 12.1292 54.7138 12.5132L56.1358 13.2422C57.2638 13.8182 58.0738 14.4512 58.5658 15.1412C59.0638 15.8312 59.3128 16.6592 59.3128 17.6252C59.3128 18.3932 59.0998 19.0832 58.6738 19.6952C58.2478 20.3072 57.6688 20.7902 56.9368 21.1442C56.2048 21.4982 55.3828 21.6752 54.4708 21.6752ZM64.4365 21.7022C63.5125 21.7022 62.8555 21.5012 62.4655 21.0992C62.0755 20.6972 61.8805 20.0522 61.8805 19.1642V12.9632H60.6205L60.5125 12.4142L64.1035 9.67818L64.6525 9.76818V12.0722H67.4065L67.1455 12.9632H64.6525V18.9842C64.6525 19.9382 65.0245 20.4152 65.7685 20.4152C65.9785 20.4152 66.1765 20.3792 66.3625 20.3072C66.5485 20.2352 66.7195 20.1062 66.8755 19.9202L67.2895 20.4962C66.9775 20.8922 66.5725 21.1922 66.0745 21.3962C65.5765 21.6002 65.0305 21.7022 64.4365 21.7022ZM69.9147 26.1482C69.3327 26.1482 68.8347 26.0192 68.4207 25.7612C68.0127 25.5032 67.8087 25.1192 67.8087 24.6092C67.8087 24.2672 67.9227 23.9942 68.1507 23.7902C68.3787 23.5862 68.6487 23.4842 68.9607 23.4842C69.2247 23.4842 69.4587 23.5592 69.6627 23.7092C69.8727 23.8592 70.0227 24.0872 70.1127 24.3932C70.1967 24.6752 70.2777 24.8582 70.3557 24.9422C70.4337 25.0322 70.5537 25.0772 70.7157 25.0772C70.9257 25.0772 71.1327 24.9722 71.3367 24.7622C71.5407 24.5522 71.7087 24.2642 71.8407 23.8982L72.5427 22.0082L68.7447 13.4132C68.6427 13.1852 68.4897 13.0202 68.2857 12.9182C68.0817 12.8102 67.7577 12.7352 67.3137 12.6932V12.0722H73.1277V12.6932C72.7497 12.7232 72.4587 12.7712 72.2547 12.8372C72.0567 12.9032 71.9337 12.9962 71.8857 13.1162C71.8377 13.2362 71.8527 13.3922 71.9307 13.5842L74.0007 18.4622H74.0907L75.8817 14.1062C76.0857 13.6442 76.0857 13.3022 75.8817 13.0802C75.6837 12.8582 75.2637 12.7292 74.6217 12.6932V12.0722H78.9057V12.6932C78.4677 12.7772 78.1317 12.8702 77.8977 12.9722C77.6637 13.0742 77.4807 13.2152 77.3487 13.3952C77.2167 13.5692 77.0847 13.8122 76.9527 14.1242L72.8487 24.0242C72.6807 24.4142 72.5007 24.7442 72.3087 25.0142C72.1167 25.2842 71.9067 25.5062 71.6787 25.6802C71.2407 25.9922 70.6527 26.1482 69.9147 26.1482ZM78.7059 21.5132V20.8832L80.2359 20.5322V8.49018L78.7059 8.01318V7.58118L82.6029 6.72618H82.9809V20.5322L84.4119 20.8832V21.5132H78.7059ZM85.1776 21.5132V20.8832L86.6986 20.5322V13.6562L85.1776 13.1702V12.7472L89.0836 11.8922H89.4616V20.5322L90.8836 20.8832V21.5132H85.1776ZM88.0486 10.5602C87.5566 10.5602 87.1786 10.4072 86.9146 10.1012C86.6506 9.79518 86.5186 9.46218 86.5186 9.10218C86.5186 8.71218 86.6536 8.36718 86.9236 8.06718C87.1996 7.76718 87.5746 7.61718 88.0486 7.61718C88.5346 7.61718 88.9186 7.76718 89.2006 8.06718C89.4886 8.36718 89.6326 8.71218 89.6326 9.10218C89.6326 9.46218 89.4976 9.79518 89.2276 10.1012C88.9636 10.4072 88.5706 10.5602 88.0486 10.5602ZM94.9416 21.7022C94.4856 21.7022 94.0026 21.6662 93.4926 21.5942C92.9826 21.5282 92.5446 21.4352 92.1786 21.3152L92.0616 18.4172H92.8266C92.8806 19.1912 93.0816 19.7852 93.4296 20.1992C93.7836 20.6072 94.2696 20.8112 94.8876 20.8112C95.3496 20.8112 95.7186 20.6942 95.9946 20.4602C96.2706 20.2202 96.4086 19.9082 96.4086 19.5242C96.4086 19.2242 96.3006 18.9572 96.0846 18.7232C95.8746 18.4832 95.5146 18.2282 95.0046 17.9582L94.1406 17.5172C93.4326 17.1452 92.9106 16.7312 92.5746 16.2752C92.2446 15.8192 92.0796 15.2762 92.0796 14.6462C92.0796 13.7402 92.4096 13.0562 93.0696 12.5942C93.7356 12.1262 94.7136 11.8922 96.0036 11.8922C96.4596 11.8922 96.8976 11.9222 97.3176 11.9822C97.7436 12.0362 98.0856 12.1112 98.3436 12.2072V14.6732H97.6596C97.4856 13.4132 96.8916 12.7832 95.8776 12.7832C95.4696 12.7832 95.1396 12.8822 94.8876 13.0802C94.6416 13.2782 94.5186 13.5362 94.5186 13.8542C94.5186 14.1362 94.6296 14.3912 94.8516 14.6192C95.0736 14.8412 95.4576 15.0842 96.0036 15.3482L96.8586 15.7892C97.5246 16.1312 98.0166 16.5332 98.3346 16.9952C98.6526 17.4512 98.8116 18.0032 98.8116 18.6512C98.8116 19.6112 98.4726 20.3612 97.7946 20.9012C97.1166 21.4352 96.1656 21.7022 94.9416 21.7022ZM99.8532 21.5132V20.8832L101.185 20.5322V8.50818L99.8442 8.01318V7.59918L103.57 6.72618H103.957V20.5322L105.199 20.8832V21.5132H99.8532ZM106.18 21.5132V20.8832L107.431 20.5322V15.6542C107.431 14.9222 107.284 14.3822 106.99 14.0342C106.696 13.6802 106.255 13.5032 105.667 13.5032C105.301 13.5032 104.959 13.5752 104.641 13.7192C104.323 13.8632 104.023 14.0612 103.741 14.3132V13.1882C104.203 12.8282 104.749 12.5222 105.379 12.2702C106.015 12.0182 106.666 11.8922 107.332 11.8922C109.24 11.8922 110.194 12.9362 110.194 15.0242V20.5322L111.535 20.8832V21.5132H106.18Z" fill="#4392F9"/>
</g>
<defs>
<linearGradient id="paint0_linear_2684_325" x1="39.2809" y1="7.75634" x2="8.25549" y2="7.75634" gradientUnits="userSpaceOnUse">
<stop stop-color="#CFE2FC"/>
<stop offset="1" stop-color="#4392F9"/>
</linearGradient>
<linearGradient id="paint1_linear_2684_325" x1="0.500001" y1="23.2681" x2="31.5254" y2="23.2681" gradientUnits="userSpaceOnUse">
<stop stop-color="#F8BCC6"/>
<stop offset="1" stop-color="#F83758"/>
</linearGradient>
<clipPath id="clip0_2684_325">
<rect width="111.781" height="31.0263" fill="white" transform="translate(0.5)"/>
</clipPath>
</defs>
</svg>
