<svg width="18" height="22" viewBox="0 0 18 22" fill="none" xmlns="http://www.w3.org/2000/svg">
<path fill-rule="evenodd" clip-rule="evenodd" d="M17.4933 17.7092C17.4933 21.2799 12.5966 21.6926 8.91433 21.6926L8.65083 21.6924C6.30481 21.6867 0.333252 21.5386 0.333252 17.6876C0.333252 14.1898 5.03313 13.7223 8.68736 13.7047L9.17783 13.7044C11.5237 13.7101 17.4933 13.8582 17.4933 17.7092ZM8.91433 15.3292C4.29825 15.3292 1.95825 16.1221 1.95825 17.6876C1.95825 19.2671 4.29825 20.0676 8.91433 20.0676C13.5293 20.0676 15.8683 19.2746 15.8683 17.7092C15.8683 16.1297 13.5293 15.3292 8.91433 15.3292ZM8.91433 0.166382C12.0863 0.166382 14.6658 2.74688 14.6658 5.91888C14.6658 9.09088 12.0863 11.6703 8.91433 11.6703H8.87967C5.71417 11.6605 3.14992 9.07897 3.16072 5.91563C3.16072 2.74688 5.74125 0.166382 8.91433 0.166382ZM8.91433 1.71338C6.59492 1.71338 4.70773 3.59947 4.70773 5.91888C4.70017 8.23072 6.57325 10.1157 8.88292 10.1244L8.91433 10.8979V10.1244C11.2327 10.1244 13.1188 8.23722 13.1188 5.91888C13.1188 3.59947 11.2327 1.71338 8.91433 1.71338Z" fill="black"/>
</svg>
